<mxfile host="app.diagrams.net" modified="2022-04-12T14:58:46.585Z" agent="5.0 (Windows NT 10.0; Win64; x64) AppleWebKit/537.36 (KHTML, like Gecko) Chrome/100.0.4896.75 Safari/537.36" etag="6Jy9NnwXSl1xnIkR4g2U" version="17.4.3" type="github">
  <diagram id="jzDBTS488UMIBuffx7kb" name="Page-1">
    <mxGraphModel dx="1038" dy="547" grid="1" gridSize="10" guides="1" tooltips="1" connect="1" arrows="1" fold="1" page="1" pageScale="1" pageWidth="827" pageHeight="1169" math="0" shadow="0">
      <root>
        <mxCell id="0" />
        <mxCell id="1" parent="0" />
        <mxCell id="GWi3ky6AhZAIl71QadLR-3" style="edgeStyle=orthogonalEdgeStyle;rounded=0;orthogonalLoop=1;jettySize=auto;html=1;exitX=1;exitY=0.5;exitDx=0;exitDy=0;entryX=0;entryY=0;entryDx=0;entryDy=30;entryPerimeter=0;" edge="1" parent="1" source="GWi3ky6AhZAIl71QadLR-1" target="GWi3ky6AhZAIl71QadLR-2">
          <mxGeometry relative="1" as="geometry" />
        </mxCell>
        <mxCell id="GWi3ky6AhZAIl71QadLR-1" value="" style="rounded=0;whiteSpace=wrap;html=1;" vertex="1" parent="1">
          <mxGeometry x="120" y="90" width="120" height="60" as="geometry" />
        </mxCell>
        <mxCell id="GWi3ky6AhZAIl71QadLR-4" style="edgeStyle=orthogonalEdgeStyle;rounded=0;orthogonalLoop=1;jettySize=auto;html=1;entryX=1;entryY=0.5;entryDx=0;entryDy=0;" edge="1" parent="1" source="GWi3ky6AhZAIl71QadLR-2" target="GWi3ky6AhZAIl71QadLR-1">
          <mxGeometry relative="1" as="geometry">
            <mxPoint x="310" y="120" as="targetPoint" />
            <Array as="points" />
          </mxGeometry>
        </mxCell>
        <mxCell id="GWi3ky6AhZAIl71QadLR-2" value="" style="shape=card;whiteSpace=wrap;html=1;" vertex="1" parent="1">
          <mxGeometry x="320" y="220" width="450" height="60" as="geometry" />
        </mxCell>
        <mxCell id="GWi3ky6AhZAIl71QadLR-6" style="edgeStyle=orthogonalEdgeStyle;rounded=0;orthogonalLoop=1;jettySize=auto;html=1;entryX=0.5;entryY=1;entryDx=0;entryDy=0;entryPerimeter=0;" edge="1" parent="1" source="GWi3ky6AhZAIl71QadLR-5" target="GWi3ky6AhZAIl71QadLR-2">
          <mxGeometry relative="1" as="geometry" />
        </mxCell>
        <mxCell id="GWi3ky6AhZAIl71QadLR-5" value="Vertical Container" style="swimlane;" vertex="1" parent="1">
          <mxGeometry x="90" y="250" width="110" height="140" as="geometry" />
        </mxCell>
      </root>
    </mxGraphModel>
  </diagram>
</mxfile>
